<svg width="auto" height="60" viewBox="0 0 121 43" fill="none" xmlns="http://www.w3.org/2000/svg">
<g id="SVG">
<path id="Vector" d="M20.2109 15.4036C19.0787 15.4036 18.7513 15.9058 18.7513 17.0134V18.8508H21.7714L21.4687 21.8193H18.7525V30.8281H15.1281V21.8193H12.6864V18.8508H15.1281V17.0639C15.1281 14.0695 16.3354 12.4879 19.7041 12.4879C20.41 12.4862 21.1153 12.5282 21.816 12.6134V15.4071L20.2109 15.4036Z" fill="#1877F2"/>
<path id="Vector_2" d="M22.0225 24.4616C22.0225 21.1153 23.6077 18.595 26.9294 18.595C28.741 18.595 29.8474 19.5266 30.3766 20.6835V18.8508H33.8485V30.8281H30.3766V29.0165C29.8732 30.1745 28.741 31.0804 26.9294 31.0804C23.6077 31.0804 22.0225 28.5636 22.0225 25.2137V24.4616ZM25.6458 25.2677C25.6458 27.0535 26.2993 28.2362 27.9854 28.2362C29.4708 28.2362 30.2252 27.1544 30.2252 25.4437V24.2411C30.2252 22.5304 29.4708 21.4486 27.9854 21.4486C26.2993 21.4486 25.6458 22.6313 25.6458 24.4171V25.2677Z" fill="#1877F2"/>
<path id="Vector_3" d="M41.3976 18.5986C42.8056 18.5986 44.1397 18.9013 44.8695 19.4035L44.0646 21.9707C43.3096 21.6112 42.4849 21.4221 41.6487 21.4169C39.6857 21.4169 38.8327 22.5491 38.8327 24.4875V25.1915C38.8327 27.1298 39.6881 28.2621 41.6487 28.2621C42.4849 28.2568 43.3096 28.0677 44.0646 27.7082L44.8695 30.2743C44.1397 30.7777 42.8068 31.0804 41.3976 31.0804C37.1443 31.0804 35.2072 28.79 35.2072 25.1164V24.5626C35.2072 20.8889 37.1443 18.5986 41.3976 18.5986Z" fill="#1877F2"/>
<path id="Vector_4" d="M45.347 25.2971V24.2411C45.347 20.8443 47.2842 18.6091 51.2359 18.6091C54.96 18.6091 56.5957 20.8736 56.5957 24.1953V26.1078H48.9691C49.0453 27.7434 49.7751 28.4733 51.785 28.4733C53.1449 28.4733 54.5787 28.1963 55.6359 27.7434L56.2988 30.225C55.3425 30.7295 53.3796 31.1062 51.6442 31.1062C47.0577 31.105 45.347 28.817 45.347 25.2971ZM48.9702 23.7365H53.3491V23.435C53.3491 22.1268 52.8211 21.0884 51.2371 21.0884C49.6003 21.0895 48.9702 22.1221 48.9702 23.7319V23.7365Z" fill="#1877F2"/>
<path id="Vector_5" d="M70.0267 25.2173C70.0267 28.5636 68.4169 31.0839 65.0987 31.0839C63.2871 31.0839 62.0293 30.1781 61.5259 29.02V30.8316H58.1045V12.8364L61.7278 12.5079V20.5099C62.2558 19.4539 63.4138 18.5974 65.0999 18.5974C68.4216 18.5974 70.0278 21.1142 70.0278 24.464L70.0267 25.2173ZM66.4035 24.3866C66.4035 22.7005 65.7499 21.4427 64.0134 21.4427C62.528 21.4427 61.7231 22.4987 61.7231 24.2106V25.4684C61.7231 27.1791 62.528 28.2363 64.0134 28.2363C65.7499 28.2363 66.4035 26.9785 66.4035 25.2924V24.3866Z" fill="#1877F2"/>
<path id="Vector_6" d="M71.2387 25.141V24.5379C71.2387 21.0895 73.2017 18.5986 77.2027 18.5986C81.2037 18.5986 83.1679 21.0895 83.1679 24.5379V25.141C83.1679 28.5882 81.2049 31.0804 77.2039 31.0804C73.2029 31.0804 71.2387 28.5882 71.2387 25.141ZM79.5435 24.2857C79.5435 22.7005 78.8888 21.4427 77.1968 21.4427C75.5049 21.4427 74.8561 22.7005 74.8561 24.2857V25.3933C74.8561 26.9784 75.5108 28.2362 77.1968 28.2362C78.8829 28.2362 79.5435 26.9784 79.5435 25.3933V24.2857Z" fill="#1877F2"/>
<path id="Vector_7" d="M84.3729 25.141V24.5379C84.3729 21.0895 86.3358 18.5986 90.3369 18.5986C94.3379 18.5986 96.3009 21.0895 96.3009 24.5379V25.141C96.3009 28.5882 94.3379 31.0804 90.3369 31.0804C86.3358 31.0804 84.3729 28.5882 84.3729 25.141ZM92.6777 24.2857C92.6777 22.7005 92.0229 21.4427 90.3369 21.4427C88.6508 21.4427 87.9973 22.7005 87.9973 24.2857V25.3933C87.9973 26.9784 88.6508 28.2362 90.3369 28.2362C92.0229 28.2362 92.6777 26.9784 92.6777 25.3933V24.2857Z" fill="#1877F2"/>
<path id="Vector_8" d="M101.283 24.5626L104.856 18.8509H108.705L104.956 24.7644L108.857 30.8281H105.007L101.283 24.9615V30.8281H97.6584V12.8364L101.283 12.5079V24.5626Z" fill="#1877F2"/>
</g>
</svg>
